name Run_40002_IK.mot
datacolumns 164
datarows 4
range 2.75 2.78
endheader
time	         pelvis_tilt	         pelvis_list	     pelvis_rotation	           pelvis_tx	           pelvis_ty	           pelvis_tz	       hip_flexion_r	     hip_adduction_r	      hip_rotation_r	        knee_angle_r	       ankle_angle_r	       hip_flexion_l	     hip_adduction_l	      hip_rotation_l	        knee_angle_l	       ankle_angle_l	    lumbar_extension	      lumbar_bending	     lumbar_rotation	          arm_flex_r	           arm_add_r	           arm_rot_r	        elbow_flex_r	           pro_sup_r	          arm_flex_l	           arm_add_l	           arm_rot_l	        elbow_flex_l	           pro_sup_l	    subtalar_angle_r	         mtp_angle_r	    subtalar_angle_l	         mtp_angle_l	        wrist_flex_r	         wrist_dev_r	        wrist_flex_l	         wrist_dev_l	             LASI_tx	             LASI_ty	             LASI_tz	             RASI_tx	             RASI_ty	             RASI_tz	             LPSI_tx	             LPSI_ty	             LPSI_tz	             RPSI_tx	             RPSI_ty	             RPSI_tz	             RTH1_tx	             RTH1_ty	             RTH1_tz	             RTH2_tx	             RTH2_ty	             RTH2_tz	             RTH3_tx	             RTH3_ty	             RTH3_tz	             LTH1_tx	             LTH1_ty	             LTH1_tz	             LTH2_tx	             LTH2_ty	             LTH2_tz	             LTH3_tx	             LTH3_ty	             LTH3_tz	             RTB1_tx	             RTB1_ty	             RTB1_tz	             RTB2_tx	             RTB2_ty	             RTB2_tz	             RTB3_tx	             RTB3_ty	             RTB3_tz	             LTB1_tx	             LTB1_ty	             LTB1_tz	             LTB2_tx	             LTB2_ty	             LTB2_tz	             LTB3_tx	             LTB3_ty	             LTB3_tz	             RCAL_tx	             RCAL_ty	             RCAL_tz	             RTOE_tx	             RTOE_ty	             RTOE_tz	             RMT5_tx	             RMT5_ty	             RMT5_tz	             LCAL_tx	             LCAL_ty	             LCAL_tz	             LTOE_tx	             LTOE_ty	             LTOE_tz	             LMT5_tx	             LMT5_ty	             LMT5_tz	             LACR_tx	             LACR_ty	             LACR_tz	             RACR_tx	             RACR_ty	             RACR_tz	             CLAV_tx	             CLAV_ty	             CLAV_tz	               C7_tx	               C7_ty	               C7_tz	             RUA1_tx	             RUA1_ty	             RUA1_tz	             RUA2_tx	             RUA2_ty	             RUA2_tz	             RUA3_tx	             RUA3_ty	             RUA3_tz	             RLEL_tx	             RLEL_ty	             RLEL_tz	             RMEL_tx	             RMEL_ty	             RMEL_tz	             LUA1_tx	             LUA1_ty	             LUA1_tz	             LUA2_tx	             LUA2_ty	             LUA2_tz	             LUA3_tx	             LUA3_ty	             LUA3_tz	             LLEL_tx	             LLEL_ty	             LLEL_tz	             LMEL_tx	             LMEL_ty	             LMEL_tz	      RFAsuperior_tx	      RFAsuperior_ty	      RFAsuperior_tz	        RFAradius_tx	        RFAradius_ty	        RFAradius_tz	          RFAulna_tx	          RFAulna_ty	          RFAulna_tz	      LFAsuperior_tx	      LFAsuperior_ty	      LFAsuperior_tz	        LFAradius_tx	        LFAradius_ty	        LFAradius_tz	          LFAulna_tx	          LFAulna_ty	          LFAulna_tz	
2.75	        -13.25409166	          4.14757141	         -1.46300165	          0.96753163	          0.98888561	         -0.36222340	         51.93102668	         -3.13119375	          4.20719745	        -99.27853882	          5.55486731	          8.75530759	         11.41913383	          1.45918785	        -28.14849087	         14.61325283	          1.24515194	         -4.20704798	         -6.75701436	        -37.45779163	        -23.39349838	         -8.70195214	         93.14367242	        117.01692470	        -26.71857686	        -12.08431060	        -12.52411082	        122.40589402	        101.43705580	          0.00000000	          0.00000000	          0.00000000	          0.00000000	          0.00000000	          0.00000000	          0.00000000	          0.00000000	          0.99205744	          1.03728447	         -0.48647942	          0.97957754	          1.02476438	         -0.23535301	          0.83346040	          1.09514036	         -0.42530911	          0.82350505	          1.08852426	         -0.31185647	          0.92174383	          0.91743740	         -0.18376135	          0.95257081	          0.77393584	         -0.20713383	          1.08067612	          0.67295643	         -0.20226325	          0.92165093	          0.89581512	         -0.53535766	          0.82543084	          0.75308462	         -0.49141449	          0.86016954	          0.61397839	         -0.47540325	          1.06564380	          0.46746661	         -0.26514490	          0.98061127	          0.51404694	         -0.20152203	          0.89372232	          0.39295281	         -0.27221819	          0.84284271	          0.38737606	         -0.39200442	          0.71786490	          0.33087610	         -0.44369024	          0.70432473	          0.21720292	         -0.37450261	          0.71360449	          0.42056566	         -0.27290138	          0.84011784	          0.21330530	         -0.28610827	          0.79070665	          0.23897242	         -0.19461672	          0.52025875	          0.15609014	         -0.35432948	          0.73873340	          0.06696523	         -0.33099493	          0.68347645	          0.04121618	         -0.42842104	          0.98574484	          1.51086342	         -0.52651600	          0.96974806	          1.50256863	         -0.20166243	          1.03985230	          1.46629546	         -0.32670253	          0.92169259	          1.53472015	         -0.37335893	          0.83983496	          1.43442853	         -0.15071034	          0.86345480	          1.37617852	         -0.10403673	          0.77271550	          1.32890694	         -0.06672343	          0.71599846	          1.28826901	         -0.04217740	          0.71775802	          1.25579465	         -0.12449110	          0.89125920	          1.41083859	         -0.58598360	          0.92173903	          1.33433844	         -0.60659027	          0.85114883	          1.26927974	         -0.63445997	          0.83445015	          1.20517036	         -0.65540359	          0.81452777	          1.18420587	         -0.56728598	          0.78468384	          1.19716825	         -0.02632067	          0.90756335	          1.08032479	         -0.10430089	          0.86770978	          1.05818836	         -0.05192104	          0.90772297	          1.16437319	         -0.64169309	          1.06464137	          1.19532052	         -0.54010110	          1.06994483	          1.12989302	         -0.56904791	
2.76	        -13.30464069	          3.27747799	         -2.57427428	          0.97041476	          0.99632389	         -0.36157986	         53.01800487	         -1.76229110	          3.74996981	        -94.68694197	          6.27318425	          4.87695677	         10.21938163	          0.87407751	        -24.73710476	          9.18798486	          1.84836959	         -2.82719227	         -6.81429962	        -39.47280416	        -23.48195986	        -10.03896335	         95.31071198	        115.38448722	        -27.18552936	        -11.56943672	        -12.55857749	        124.79850328	        101.09539882	          0.00000000	          0.00000000	          0.00000000	          0.00000000	          0.00000000	          0.00000000	          0.00000000	          0.00000000	          0.99717038	          1.04333632	         -0.48810427	          0.98028233	          1.03446515	         -0.23481809	          0.83821617	          1.10164445	         -0.42792172	          0.82568640	          1.09656823	         -0.31476903	          0.92108727	          0.92756772	         -0.18194131	          0.95712612	          0.78434534	         -0.20721072	          1.08726644	          0.68721017	         -0.20258678	          0.92264254	          0.90040956	         -0.53438639	          0.81619909	          0.76391523	         -0.49142162	          0.84279358	          0.62298721	         -0.47618476	          1.08511071	          0.47439801	         -0.26482578	          0.99514730	          0.51376073	         -0.20370914	          0.91970613	          0.38202703	         -0.27311581	          0.81553701	          0.39603370	         -0.39521235	          0.68946635	          0.34264475	         -0.44688740	          0.67544689	          0.22787273	         -0.37857103	          0.73911165	          0.39190255	         -0.27633342	          0.88767684	          0.19946672	         -0.28520417	          0.83422091	          0.22085800	         -0.19456856	          0.49213747	          0.17334804	         -0.35820775	          0.70085546	          0.06538177	         -0.33141707	          0.64405980	          0.04256186	         -0.42799068	          0.98871198	          1.51933014	         -0.52460453	          0.96584476	          1.51100365	         -0.20078318	          1.03887837	          1.47509271	         -0.32419843	          0.92153870	          1.54205421	         -0.37299451	          0.83424854	          1.44565395	         -0.15362601	          0.85575721	          1.38680300	         -0.10557553	          0.76269397	          1.34110916	         -0.07092937	          0.70319875	          1.30120608	         -0.04964800	          0.70685168	          1.26831122	         -0.13198270	          0.89539727	          1.41960893	         -0.58609387	          0.92667607	          1.34320595	         -0.60616974	          0.85691273	          1.27804214	         -0.63562949	          0.83997627	          1.21384123	         -0.65651185	          0.81852557	          1.19324603	         -0.56835523	          0.77300365	          1.21141934	         -0.03047509	          0.90089040	          1.09677983	         -0.10414974	          0.85916907	          1.07302800	         -0.05415221	          0.91401066	          1.17625142	         -0.64066264	          1.06710085	          1.21518220	         -0.53663613	          1.07580697	          1.14939107	         -0.56415626	
2.77	        -13.35851692	          2.31053847	         -3.63645089	          0.97353785	          1.00373843	         -0.36086817	         53.68880864	         -0.37198022	          3.06484480	        -89.59692154	          6.81556269	          1.22773803	          8.95117285	         -0.12120960	        -21.51901410	          3.08105290	          2.39645629	         -1.32363089	         -6.77984712	        -41.51323645	        -23.39547383	        -11.55622404	         97.41562482	        113.68673638	        -27.68507740	        -11.20483552	        -12.41596899	        127.07837789	        100.96310746	          0.00000000	          0.00000000	          0.00000000	          0.00000000	          0.00000000	          0.00000000	          0.00000000	          0.00000000	          1.00247236	          1.04930605	         -0.48951945	          0.98110535	          1.04410636	         -0.23405884	          0.84316104	          1.10806646	         -0.43032461	          0.82809460	          1.10472912	         -0.31736250	          0.92208340	          0.93794196	         -0.18039393	          0.96089401	          0.79444452	         -0.20671389	          1.09224725	          0.70020889	         -0.20301507	          0.92351302	          0.90531966	         -0.53357302	          0.80823610	          0.77524567	         -0.49187342	          0.82692281	          0.63304194	         -0.47778409	          1.10309818	          0.48073875	         -0.26482468	          1.00884680	          0.51159432	         -0.20578055	          0.94730709	          0.37118245	         -0.27448608	          0.79045131	          0.40596607	         -0.39966152	          0.66316325	          0.35534985	         -0.45032252	          0.64925919	          0.23941173	         -0.38338935	          0.76726315	          0.36260547	         -0.28028785	          0.93600530	          0.18723459	         -0.28477430	          0.87871513	          0.20397601	         -0.19472633	          0.46721414	          0.19186844	         -0.36207450	          0.66362195	          0.06447493	         -0.33207016	          0.60524332	          0.04484225	         -0.42766593	          0.99156566	          1.52795034	         -0.52265333	          0.96274772	          1.51906291	         -0.19992353	          1.03808595	          1.48367979	         -0.32175640	          0.92144739	          1.54940251	         -0.37242544	          0.82951720	          1.45667420	         -0.15646686	          0.84887773	          1.39717153	         -0.10743693	          0.75335003	          1.35310750	         -0.07565445	          0.69155250	          1.31366900	         -0.05761942	          0.69713604	          1.28034640	         -0.13996291	          0.89935546	          1.42887464	         -0.58619594	          0.93134945	          1.35251093	         -0.60595178	          0.86183989	          1.28765066	         -0.63694236	          0.84513842	          1.22317366	         -0.65809234	          0.82211577	          1.20205363	         -0.57003676	          0.76217345	          1.22520429	         -0.03510103	          0.89501098	          1.11272882	         -0.10405472	          0.85144996	          1.08740978	         -0.05660577	          0.91979273	          1.18836667	         -0.64016733	          1.06859422	          1.23435084	         -0.53340979	          1.08054529	          1.16841975	         -0.55964550	
2.78	        -13.49236508	          1.31606208	         -4.59750359	          0.97663761	          1.01082883	         -0.36008937	         54.05596437	          0.97375681	          2.20375958	        -84.03494401	          7.18686041	         -2.05066629	          7.70287497	         -1.31245382	        -18.63598011	         -3.24591877	          2.93905777	          0.20011336	         -6.69543920	        -43.46503881	        -23.21168002	        -13.03732823	         99.32284923	        111.82119560	        -28.20251823	        -11.01604807	        -12.18364590	        129.25153444	        101.08053194	          0.00000000	          0.00000000	          0.00000000	          0.00000000	          0.00000000	          0.00000000	          0.00000000	          0.00000000	          1.00772762	          1.05496654	         -0.49066214	          0.98195541	          1.05321839	         -0.23301682	          0.84805931	          1.11417934	         -0.43245495	          0.83058559	          1.11276918	         -0.31947848	          0.92413820	          0.94816846	         -0.17900152	          0.96382946	          0.80392329	         -0.20563359	          1.09549634	          0.71143405	         -0.20371764	          0.92426113	          0.91035857	         -0.53298371	          0.80157248	          0.78641944	         -0.49280460	          0.81258698	          0.64358962	         -0.48001201	          1.11954605	          0.48616066	         -0.26510922	          1.02183123	          0.50748584	         -0.20765768	          0.97637653	          0.36074871	         -0.27623751	          0.76740162	          0.41680592	         -0.40470922	          0.63901280	          0.36864074	         -0.45385814	          0.62546110	          0.25141478	         -0.38845607	          0.79794357	          0.33310472	         -0.28455214	          0.98472613	          0.17688775	         -0.28496590	          0.92417624	          0.18831211	         -0.19540996	          0.44537805	          0.21120720	         -0.36626649	          0.62719096	          0.06478966	         -0.33316356	          0.56772264	          0.04880685	         -0.42833238	          0.99429063	          1.53645826	         -0.52067772	          0.96043812	          1.52658052	         -0.19910950	          1.03748679	          1.49181977	         -0.31930016	          0.92136309	          1.55644116	         -0.37169560	          0.82566475	          1.46723238	         -0.15910113	          0.84291107	          1.40707018	         -0.10955570	          0.74503413	          1.36483828	         -0.08086149	          0.68229461	          1.32547814	         -0.06496560	          0.68994741	          1.29170255	         -0.14729319	          0.90308766	          1.43837397	         -0.58626586	          0.93561222	          1.36205905	         -0.60602315	          0.86593257	          1.29782577	         -0.63851946	          0.84995120	          1.23293025	         -0.66001259	          0.82541812	          1.21053971	         -0.57230457	          0.75260284	          1.23797367	         -0.04003249	          0.88976467	          1.12781262	         -0.10397341	          0.84444329	          1.10096621	         -0.05932482	          0.92515072	          1.20057656	         -0.64020018	          1.06943416	          1.25243206	         -0.53057928	          1.08447726	          1.18663867	         -0.55574940	
